HIERARCHY
ROOT Hips
{
	OFFSET	0.00	0.00	0.00
	CHANNELS 6 Xposition Yposition Zposition Zrotation Xrotation Yrotation
	JOINT Chest
	{
		OFFSET	 0.000000	 4.570000	 0.000000
		CHANNELS 3 Zrotation Xrotation Yrotation
		JOINT Neck
		{
			OFFSET	 0.000000	 17.620001	 0.000000
			CHANNELS 3 Zrotation Xrotation Yrotation
			JOINT Head
			{
				OFFSET	 0.000000	 5.190000	 0.000000
				CHANNELS 3 Zrotation Xrotation Yrotation
				End Site 
				{
					OFFSET	 0.000000	 4.140008	 0.000000
				}
			}
		}
		JOINT LeftCollar
		{
			OFFSET	 1.060000	 15.330000	 01.760000
			CHANNELS 3 Zrotation Xrotation Yrotation
			JOINT LeftShoulder
			{
				OFFSET	 5.00000	 0.000000	 0.000000
				CHANNELS 3 Zrotation Xrotation Yrotation
				JOINT LeftElbow
				{
					OFFSET	 0.000000	-11.90000	 0.000000
					CHANNELS 3 Zrotation Xrotation Yrotation
					JOINT LeftWrist
					{
						OFFSET	 0.000000	-9.520000	 0.000000
						CHANNELS 3 Zrotation Xrotation Yrotation
						End Site 
						{
							OFFSET	 0.000000	-7.0	 0.000000
						}
					}
				}
			}
		}
		JOINT RightCollar
		{
			OFFSET	-1.060000	 15.330000	 01.760000
			CHANNELS 3 Zrotation Xrotation Yrotation
			JOINT RightShoulder
			{
				OFFSET	-5.000000	 0.000000	 0.000000
				CHANNELS 3 Zrotation Xrotation Yrotation
				JOINT RightElbow
				{
					OFFSET	 0.000000	-11.900000	 0.000000
					CHANNELS 3 Zrotation Xrotation Yrotation
					JOINT RightWrist
					{
						OFFSET	 0.000000	-9.520000	 0.000000
						CHANNELS 3 Zrotation Xrotation Yrotation
						End Site 
						{
							OFFSET	 0.000000	-7.0	 0.000000
						}
					}
				}
			}
		}
	}
	JOINT LeftHip
	{
		OFFSET	 3.430000	 0.000000	 0.000000
		CHANNELS 3 Zrotation Xrotation Yrotation
		JOINT LeftKnee
		{
			OFFSET	 0.000000	-19.0	 0.000000
			CHANNELS 3 Zrotation Xrotation Yrotation
			JOINT LeftAnkle
			{
				OFFSET	 0.000000	-15.00000	 0.000000
				CHANNELS 3 Zrotation Xrotation Yrotation
				End Site 
				{
					OFFSET	 0.000000	-3.0	 0.000000
				}
			}
		}
	}
	JOINT RightHip
	{
		OFFSET	-3.430000	 0.000000	 0.000000
		CHANNELS 3 Zrotation Xrotation Yrotation
		JOINT RightKnee
		{
			OFFSET	 0.000000	-19.0	 0.000000
			CHANNELS 3 Zrotation Xrotation Yrotation
			JOINT RightAnkle
			{
				OFFSET	 0.000000	-15.00000	 0.000000
				CHANNELS 3 Zrotation Xrotation Yrotation
				End Site 
				{
					OFFSET	 0.000000	-3.0	 0.000000
				}
			}
		}
	}
}
MOTION
Frames: 13
Frame Time: 0.033333333
-0.867137	34.239365	1.011418	359.591555	-359.605652	-8.030085	-1.907017	8.518628	6.070412	-355.761977	-332.216758	-1.199990	354.687452	342.922834	-2.010335	-352.133180	-335.212862	-3.847524	19.469273	-4.062393	10.510536	-320.305892	231.860792	-36.423738	-19.686416	-2.965397	55.062586	-348.676885	-337.705225	-28.981434	-52.268919	-17.808514	52.373233	28.496745	-156.420740	123.156121	-159.106698	178.238481	101.125080	-5.409683	13.651951	17.255603	7.985982	10.868490	0.320465	356.347133	-345.937925	-22.193780	-353.577573	-348.154267	-0.038549	353.398103	-349.934514	-0.306989	32.354564	9.560101	16.967380	
-0.972018	34.207052	1.121919	359.642918	-359.618821	-8.785950	-1.915269	8.583420	6.069572	-355.918443	-332.490649	-1.137616	354.682261	343.273659	-2.216840	-351.201678	-335.229664	-5.643205	22.429652	-6.095786	11.992734	-316.758374	232.510862	-31.754498	-20.593293	-3.133331	54.759421	-348.201204	-337.667550	-28.792129	-52.269732	-22.355323	51.603877	28.759047	-157.190106	119.871866	-161.721390	178.613007	101.080711	-5.195476	12.238125	17.240895	-351.384454	-345.906533	-0.136845	354.766217	-347.211673	-21.593933	-353.646230	-348.449987	-0.003326	353.581480	-348.927198	-0.178976	33.067076	8.828838	18.135477	
-1.098705	34.180232	1.248381	359.604177	-359.679773	-9.908415	-1.817037	8.768677	6.075132	-356.372159	-332.721018	-1.003429	354.665404	343.881492	-2.270847	-350.853749	-335.233407	-5.914866	25.368848	-8.013982	13.415206	-311.619449	233.555525	-26.458390	-22.520629	-3.301722	54.215431	-348.090637	-337.546164	-28.098732	-52.999203	-26.168090	50.496970	29.357091	-157.439899	117.415784	-163.692692	178.148035	101.046308	-4.661702	10.035568	17.231679	-350.690452	-340.964236	-0.944494	353.723111	-350.037104	-20.479265	6.448502	11.472053	0.008804	353.646968	-348.272893	-0.099758	33.981351	8.199380	19.008459	
-1.196690	34.139539	1.426614	359.727639	359.996749	-11.130958	-1.853884	9.216816	6.069980	-357.028595	-332.957697	-0.821338	354.608905	344.321465	-2.095795	-351.222360	-335.220785	-5.001903	27.929582	-9.360731	14.637008	-306.643657	234.147785	-23.510675	-24.936088	-3.113244	53.630859	-348.637188	-337.382348	-27.100757	-53.783582	-28.740653	49.546392	30.090121	-157.432523	115.796374	-164.515661	177.142140	101.053466	-3.954660	6.876271	17.240874	-349.935553	-333.487146	-2.303263	349.178112	-351.091630	-20.277525	-353.965282	-348.370019	-0.020725	354.121502	-347.501874	-0.006716	34.102604	7.528182	19.230742	
-1.246288	34.065623	1.651130	-359.960603	359.511068	-11.965735	-1.974832	9.812038	6.060048	-357.916000	-333.246013	-0.585230	354.846349	344.508421	-1.593061	-351.764841	-335.211660	-3.783371	29.465227	-9.660663	15.391356	-304.055643	234.234118	-25.664116	-27.166317	-3.047178	52.952819	-349.916756	-337.247985	-26.208251	-53.601083	-30.088526	49.331412	30.826504	-157.554114	115.668117	-164.528297	175.961705	101.091414	-2.995327	2.607191	17.297874	-349.077080	-323.601978	-4.262026	341.735419	-349.419354	-20.733927	-354.980030	-347.984304	-0.083558	-4.844097	13.291020	0.068780	32.394036	6.161272	19.204359	
-1.275539	33.955711	1.897405	-359.566392	359.314058	-12.236677	-2.026770	10.067397	6.056355	-358.924327	-333.450208	-0.330799	355.302305	344.539813	-0.858188	-352.281203	-335.210949	-2.673234	29.643321	-8.447771	15.575793	-304.783577	234.728487	-31.421564	-28.270907	-3.669749	52.134423	-351.652252	-337.152854	-25.499517	-52.462221	-30.420016	49.839356	31.500309	-158.176713	116.988747	-163.931420	174.513623	101.153186	-1.543813	-2.890417	17.505114	-347.934198	-312.577697	-6.706204	337.942697	-348.153201	-19.966929	-355.879757	-347.375898	-0.150208	-4.129862	13.255908	0.056708	30.304773	4.648944	19.272056	
-1.324777	33.833040	2.169319	-359.307064	359.713214	-12.182786	-1.855795	9.620954	6.067048	-359.894897	-333.383355	-0.094432	-4.258261	-15.517489	0.073850	-353.243249	-335.221987	-1.188446	28.890064	-5.832255	15.411153	-308.078707	236.407430	-35.777992	-27.499763	-3.664954	52.184058	-353.396136	-337.044636	-24.672719	-50.844432	-30.298756	50.705407	32.205659	-159.202471	118.916869	-163.221586	172.536707	101.245879	0.449181	-9.069038	18.015062	-346.233016	-302.652395	-9.480838	337.905513	-347.464581	-18.430754	-356.164166	-347.009664	-0.180681	-4.141472	12.753134	0.016669	30.537785	4.660270	19.555331	
-1.397157	33.751440	2.509020	-359.229828	-359.699554	-12.070346	-1.516610	8.839283	6.093975	-0.916196	27.116388	0.161564	-3.676692	-15.503561	1.293224	5.067224	24.733299	1.159711	27.905569	-2.643113	15.189796	-312.553983	238.799225	-36.878861	-25.646560	-2.011027	53.425725	-354.796024	-336.888088	-23.510957	-49.122716	-30.556520	51.547218	33.205766	-160.209131	120.873759	-163.158571	170.415865	101.376520	2.606925	-14.626155	18.820130	-344.548610	-295.734943	-11.897783	338.513236	-346.201461	-17.317044	-356.171297	-346.572586	-0.214175	355.696926	-347.944826	-0.040140	33.991375	7.273473	19.787920	
-1.452263	33.737724	2.961832	-359.060057	-359.574725	-11.791473	-1.334690	8.227564	6.114559	-2.003835	28.304532	0.473224	-2.782455	-15.568270	2.407971	2.793269	24.616507	4.431645	27.180220	0.044283	15.069583	-316.466124	240.710422	-36.684709	-23.359132	0.711030	55.103625	-355.831235	-336.671244	-21.890689	-47.472245	-31.494848	52.205996	34.761239	-161.260612	123.004791	-163.537045	168.914508	101.491581	4.234442	-18.631740	19.566588	-344.604372	-292.477052	-12.342880	339.813732	-345.265315	-16.464773	-356.529035	-345.267993	-0.302318	355.882981	-349.126886	-0.130621	38.591517	11.035328	19.341009	
-1.437824	33.743689	3.543678	-358.467415	359.867003	-11.016992	-1.612324	7.993572	6.095632	-2.916458	29.951506	0.798159	-1.903524	-15.750093	2.885728	0.521844	24.412660	8.079242	26.655023	1.931331	14.982812	-319.784312	241.619492	-38.601021	-21.157205	2.292826	55.988705	-356.732765	-336.442760	-20.074588	-45.985507	-32.758228	52.708049	36.799433	-163.031980	125.290282	-163.439811	168.946500	101.437684	4.452093	-21.136930	19.618774	-346.458139	-292.565790	-10.761147	340.588330	-344.862307	-15.245970	-357.724973	-342.970181	-0.373474	356.575944	-350.682393	-0.209820	41.491113	13.335284	18.246134	
-1.364539	33.718430	4.203197	-357.648038	359.026643	-9.766661	-2.045069	8.014136	6.061520	-3.745134	31.531158	1.142003	-1.158218	-15.709230	2.960644	-1.518517	24.153071	11.470718	26.271535	3.418826	14.935033	-323.795436	242.401194	-42.337978	-19.716143	1.317727	55.769415	-357.806171	-336.238893	-18.283962	-44.770574	-34.172194	53.028576	39.002906	-165.377016	127.680643	-163.348163	169.773745	101.314249	3.502472	-23.008607	18.973088	-348.333682	-294.875869	-8.920541	339.427771	-344.344824	-13.641819	-359.300589	-340.186387	-0.307952	357.356034	-352.380678	-0.247998	40.735233	13.172151	17.027646	
-1.297883	33.691392	4.862552	-357.180662	358.297207	-8.256933	-2.090317	8.169559	6.057963	-4.464242	32.912188	1.476410	-0.583073	-15.630490	2.592344	-3.730032	23.855968	14.551801	26.792787	4.453020	15.355409	-327.632472	243.669915	-44.307747	-19.515926	-0.503812	55.269319	-358.864003	-336.033304	-16.303060	-44.250322	-36.357274	52.773216	41.265574	-167.532801	130.346111	-163.403966	169.264855	101.338995	2.413669	-24.540951	18.207146	-349.695649	-299.015510	-7.368307	338.724699	-343.844800	-12.140547	359.848588	-337.501494	-0.201212	357.673392	-353.846628	-0.281063	37.700676	11.015648	16.183240	
-1.267609	33.634796	5.519693	-357.261695	357.905400	-6.488786	-1.684797	8.236125	6.088115	-4.711307	33.948454	1.639771	-0.033479	-15.790664	1.793503	-5.921963	23.531138	17.389019	28.197262	5.039350	16.231381	-330.099618	244.935030	-44.861446	-19.334354	-0.401228	55.429446	-359.721438	-335.867713	-14.533027	-44.407242	-39.736680	51.793323	43.413525	-169.087339	133.168386	-163.334407	166.548271	101.612660	1.670963	-25.974044	17.619625	-350.229169	-304.336883	-6.368671	337.027971	-341.586193	-11.934866	-359.910224	-335.291682	-0.238448	357.693746	-354.779468	-0.315761	36.089633	8.359944	15.769800	
